<svg width="21" height="20" viewBox="0 0 21 20" fill="none" xmlns="http://www.w3.org/2000/svg">
<path d="M9.24999 16.8862H2.95832C2.91412 16.8862 2.87173 16.8686 2.84047 16.8373C2.80922 16.8061 2.79166 16.7637 2.79166 16.7195V15.5112C2.79166 14.8187 3.28582 14.2087 4.04749 13.6903C5.40749 12.762 7.60832 12.177 10.0833 12.177C10.4917 12.177 10.8925 12.1937 11.2842 12.2245C11.367 12.2328 11.4506 12.2246 11.5301 12.2001C11.6097 12.1757 11.6836 12.1357 11.7474 12.0823C11.8113 12.029 11.8639 11.9634 11.9021 11.8895C11.9403 11.8156 11.9633 11.7348 11.9699 11.6518C11.9764 11.5689 11.9663 11.4854 11.9402 11.4064C11.9141 11.3274 11.8724 11.2544 11.8177 11.1917C11.763 11.129 11.6963 11.0779 11.6216 11.0413C11.5469 11.0047 11.4656 10.9834 11.3825 10.9787C10.9503 10.944 10.5169 10.9268 10.0833 10.927C7.31499 10.927 4.86416 11.6195 3.34249 12.657C2.18166 13.4487 1.54166 14.4545 1.54166 15.5103V16.7195C1.54188 17.0951 1.69123 17.4552 1.95688 17.7207C2.22254 17.9862 2.58274 18.1353 2.95832 18.1353L9.24999 18.1362C9.41575 18.1362 9.57472 18.0703 9.69193 17.9531C9.80914 17.8359 9.87499 17.6769 9.87499 17.5112C9.87499 17.3454 9.80914 17.1864 9.69193 17.0692C9.57472 16.952 9.41575 16.8862 9.24999 16.8862ZM10.0833 1.04199C7.55332 1.04199 5.49999 3.09533 5.49999 5.62533C5.49999 8.15532 7.55332 10.2087 10.0833 10.2087C12.6133 10.2087 14.6667 8.15532 14.6667 5.62533C14.6667 3.09533 12.6133 1.04199 10.0833 1.04199ZM10.0833 2.29199C11.9233 2.29199 13.4167 3.78533 13.4167 5.62533C13.4167 7.46532 11.9233 8.95866 10.0833 8.95866C8.24332 8.95866 6.74999 7.46532 6.74999 5.62533C6.74999 3.78533 8.24332 2.29199 10.0833 2.29199Z" fill="#E14E64"/>
<path d="M15.6267 16.8401C16.1902 16.9255 16.7662 16.8651 17.2997 16.6646C17.8332 16.4642 18.3065 16.1304 18.6744 15.6951C19.0423 15.2598 19.2925 14.7375 19.4012 14.1781C19.5099 13.6186 19.4734 13.0406 19.2953 12.4992C19.1171 11.9578 18.8032 11.4711 18.3836 11.0855C17.9639 10.6999 17.4524 10.4282 16.8979 10.2965C16.3434 10.1647 15.7644 10.1772 15.2161 10.3327C14.6678 10.4883 14.1685 10.7817 13.7658 11.1851C13.3964 11.5541 13.1189 12.0049 12.9557 12.501C12.7926 12.9971 12.7484 13.5246 12.8267 14.0409L10.8917 15.975C10.8335 16.0331 10.7874 16.1021 10.7559 16.178C10.7245 16.254 10.7083 16.3354 10.7083 16.4176V18.3334C10.7083 18.6784 10.9883 18.9584 11.3333 18.9584H13.2492C13.3314 18.9584 13.4128 18.9422 13.4887 18.9108C13.5646 18.8793 13.6336 18.8332 13.6917 18.7751L15.6267 16.8401ZM15.5833 15.5567C15.4776 15.5285 15.3662 15.5286 15.2605 15.557C15.1547 15.5854 15.0583 15.641 14.9808 15.7184L12.9908 17.7084H11.9583V16.6759L13.9483 14.6859C14.0257 14.6084 14.0813 14.512 14.1097 14.4062C14.1381 14.3005 14.1382 14.1892 14.11 14.0834C13.9923 13.6403 14.0239 13.1707 14.1997 12.7473C14.3756 12.3239 14.686 11.9702 15.083 11.7409C15.48 11.5116 15.9415 11.4194 16.3962 11.4786C16.8508 11.5378 17.2733 11.7451 17.5983 12.0684C17.9217 12.3934 18.129 12.8159 18.1881 13.2706C18.2473 13.7252 18.1551 14.1867 17.9258 14.5837C17.6965 14.9807 17.3428 15.2911 16.9194 15.467C16.496 15.6429 16.0265 15.6744 15.5833 15.5567Z" fill="#E14E64"/>
<path d="M15.485 14.1819C15.3979 14.0987 15.3282 13.9988 15.2802 13.8883C15.2322 13.7777 15.2068 13.6587 15.2055 13.5382C15.2042 13.4177 15.2269 13.2981 15.2725 13.1865C15.318 13.075 15.3854 12.9736 15.4707 12.8884C15.556 12.8033 15.6574 12.736 15.769 12.6906C15.8807 12.6452 16.0003 12.6226 16.1208 12.6241C16.2413 12.6256 16.3603 12.6512 16.4708 12.6993C16.5813 12.7474 16.681 12.8172 16.7642 12.9044C16.9271 13.0754 17.0166 13.3033 17.0137 13.5394C17.0108 13.7755 16.9156 14.0011 16.7485 14.1679C16.5815 14.3348 16.3557 14.4297 16.1196 14.4323C15.8835 14.4349 15.6557 14.3451 15.485 14.1819Z" fill="#E14E64"/>
</svg>
