<svg width="24" height="24" viewBox="0 0 24 24" fill="none" xmlns="http://www.w3.org/2000/svg">
<path d="M17.4755 15.0757C16.251 15.0757 15.1547 15.6343 14.4274 16.5099L9.69583 13.8236C9.84296 13.4095 9.92383 12.9643 9.92383 12.5003C9.92383 12.0365 9.84296 11.5912 9.69583 11.1772L14.427 8.49016C15.1543 9.36606 16.2507 9.92485 17.4753 9.92485C19.6596 9.92485 21.4368 8.14709 21.4368 5.96182C21.4369 3.77721 19.6598 2 17.4755 2C15.2909 2 13.5136 3.77721 13.5136 5.96173C13.5136 6.4257 13.5943 6.87099 13.7416 7.28514L9.01014 9.97226C8.28286 9.09683 7.18671 8.53841 5.96247 8.53841C3.77758 8.53841 2 10.3156 2 12.5002C2 14.6848 3.77758 16.462 5.96247 16.462C7.18671 16.462 8.28276 15.9035 9.01004 15.0282L13.7416 17.7147C13.5943 18.1288 13.5135 18.5742 13.5135 19.0383C13.5135 21.2228 15.2908 23 17.4754 23C19.6597 23 21.4368 21.2227 21.4368 19.0383C21.4369 16.8534 19.6598 15.0757 17.4755 15.0757ZM17.4755 3.38635C18.8954 3.38635 20.0506 4.54165 20.0506 5.96173C20.0506 7.38256 18.8954 8.53841 17.4755 8.53841C16.0553 8.53841 14.8999 7.38256 14.8999 5.96173C14.8999 4.54165 16.0553 3.38635 17.4755 3.38635ZM5.96256 15.0757C4.54211 15.0757 3.38644 13.9203 3.38644 12.5003C3.38644 11.0801 4.54211 9.92485 5.96256 9.92485C7.38247 9.92485 8.53757 11.0801 8.53757 12.5003C8.53757 13.9203 7.38237 15.0757 5.96256 15.0757ZM17.4755 21.6137C16.0553 21.6137 14.8999 20.4584 14.8999 19.0384C14.8999 17.6178 16.0553 16.4621 17.4755 16.4621C18.8954 16.4621 20.0506 17.6178 20.0506 19.0384C20.0506 20.4584 18.8954 21.6137 17.4755 21.6137Z" fill="#2D3542" stroke="#2D3542" stroke-width="0.2"/>
</svg>
